<?xml version="1.0" encoding="utf-8"?>
<!-- Generator: Adobe Illustrator 19.0.0, SVG Export Plug-In . SVG Version: 6.00 Build 0)  -->
<!DOCTYPE svg PUBLIC "-//W3C//DTD SVG 1.1//EN" "http://www.w3.org/Graphics/SVG/1.1/DTD/svg11.dtd">
<svg version="1.1" id="Ebene_1" xmlns="http://www.w3.org/2000/svg" xmlns:xlink="http://www.w3.org/1999/xlink" x="0px" y="0px"
	 viewBox="0 0 4157.9 2584.8" enable-background="new 0 0 4157.9 2584.8" xml:space="preserve">
<path fill="#FF7D7D" d="M2105,2234.4H921.8c-192.5,0-350-157.5-350-350V701.3c0-192.5,157.5-350,350-350H2105
	c192.5,0,350,157.5,350,350v1183.1C2455,2076.9,2297.5,2234.4,2105,2234.4z"/>
<g>
	<path fill="#FFFFFF" d="M1174.9,1205.5l4.3-21.3c1.2-6.5,2.9-12,5.1-16.2v0c2.1-4.1,4.7-7.4,7.7-9.8c2.9-2.4,6.3-4.1,10.1-5.1
		c4.1-1.1,8.7-1.6,13.8-1.6c4.9,0,9.8,0.2,14.6,0.6c4.6,0.4,9,1.1,13,2.1l5,1.2l6.3-28.8l-4.8-1.1c-4.8-1.1-10.2-2-16-2.8
		c-5.9-0.8-11.8-1.2-17.8-1.2c-18.9,0-34.6,4.5-46.8,13.3c-12.3,8.9-20.7,24.4-25,45.8l-4.7,24.7h-108.5l16.2-83.8H1012l-16.2,83.8
		h-83.5l16.2-83.8H893l-16.2,83.8h-51.5l-5.8,29.2h51.7l-15.6,80.8h-43.2l-5.8,29.2h43.4l-19.2,99.3h35.5l19.2-99.3h83.5l-19.2,99.3
		h35.5l19.2-99.3h50.9l5.4-29.2H1010l15.6-80.8H1134l-28.6,146.9c-1.4,6.6-3.2,12-5.5,16.3c-2.1,4.1-4.7,7.3-7.5,9.6
		c-2.9,2.3-6.3,4.1-10.2,5.1c-4.1,1.2-8.7,1.7-13.5,1.7c-4.9,0-9.8-0.2-14.6-0.6c-4.6-0.4-9-1.1-13-2.1l-4.9-1.2l-6.8,28.8l5,1.1
		c5.1,1.1,10.6,2,16.3,2.6c5.8,0.7,11.8,1,17.7,1c18.9,0,34.6-4.5,46.8-13.3c12.3-8.9,20.7-24.2,25-45.5l29.3-150.5h40.5l5.4-29.2
		H1174.9z M990.1,1234.7l-15.6,80.8H891l15.6-80.8H990.1z"/>
	<path fill="#FFFFFF" d="M1385.7,1203L1385.7,1203c-4.6-1-9.7-1.6-15.1-1.6c-10.6,0-21.3,3.1-31.9,9.2c-6.5,3.7-12.9,8.4-19.1,14
		l2.4-19h-73.2l-5.4,29.2h41.9l-21.1,108.4h-43.5l-5.8,29.2h132.8l5.4-29.2h-53.7l15.1-76.6c9.9-11.6,19.1-20.1,27.3-25.2
		c8.1-5,15.7-7.6,22.6-7.6c5,0,9.5,0.5,13.2,1.6c3.7,1.1,7.5,2.7,11.1,4.8l5.8,3.4l8.3-34.7l-3.9-1.6
		C1394.7,1205.4,1390.2,1204,1385.7,1203z"/>
	<path fill="#FFFFFF" d="M1543,1214L1543,1214c-5.5-4.6-12.2-8-19.9-10c-7.4-1.9-15.9-2.9-25.2-2.9c-11.6,0-22.3,1.6-31.9,4.7
		c-9.8,3.2-18.7,8.4-26.5,15.5c-7.7,7-14.3,16.1-19.5,27.1c-5.2,10.8-9.3,24.3-12.1,40c-1.1,6.1-1.9,11.7-2.4,16.7
		c-0.6,5.1-0.8,9.8-0.8,14c0,10.4,1.5,19.3,4.4,26.5c3,7.3,7.3,13.4,12.8,18.1c5.5,4.6,12.2,8,20,10.1c7.5,2,16.2,3.1,25.8,3.1
		c11.3,0,22-1.6,31.6-4.7c9.8-3.2,18.7-8.4,26.3-15.5c7.6-7,14.1-16.2,19.4-27.3c5.2-10.9,9.2-24.3,12.1-39.8
		c1.1-6,1.9-11.6,2.4-16.5c0.6-5,0.8-9.9,0.8-14.5c0-10.2-1.5-19-4.4-26.3C1552.8,1224.8,1548.5,1218.6,1543,1214z M1469.6,1347
		c-10,0-17.6-2.1-22.8-6.3c-4.8-3.9-7.3-11.6-7.3-23c0-3.9,0.2-8.3,0.6-13c0.4-4.7,1.1-9.7,2.2-14.8c2.5-12,5.5-22,8.9-29.7
		c3.3-7.5,7.2-13.4,11.6-17.8c4.4-4.2,9.2-7.2,14.5-8.9c5.5-1.8,11.7-2.6,18.5-2.6c9.7,0,17.2,2.1,22.3,6.2c4.8,3.9,7.2,11.6,7.2,23
		c0,3.7-0.2,8-0.6,12.9c-0.4,4.8-1.1,9.8-2.2,14.9c-2.5,12-5.5,22-8.9,29.7c-3.3,7.5-7.2,13.6-11.5,18c-4.2,4.3-9,7.2-14.2,8.8
		C1482.3,1346.2,1476.2,1347,1469.6,1347z"/>
	<path fill="#FFFFFF" d="M1693,1202.4c-6.4,0-12.7,0.8-18.7,2.4c-5.9,1.6-11.6,3.7-17,6.2c-5.3,2.6-10.5,5.5-15.4,8.9
		c-1.1,0.8-2.3,1.6-3.3,2.4l1.8-16.7h-30.5l-32,166.8h35.1l21.4-109.9c8.7-9.5,17.4-16.9,25.9-22c8.4-5.1,16.6-7.6,24.1-7.6
		c6.2,0,10.6,1.3,13,3.8c2.5,2.5,3.7,6.9,3.7,13c0,2.5-0.2,4.8-0.6,7c-0.4,2.4-0.8,4.8-1.2,7.1l-20.7,108.7h35.1l20.9-108.3
		c0.6-3.2,1.2-6.5,1.7-9.7c0.5-3.3,0.7-6.6,0.7-9.8c0-13.5-3.7-24-11.1-31.2C1718.6,1206,1707.6,1202.4,1693,1202.4z"/>
	<path fill="#FFFFFF" d="M1847.2,1148l-36.4,5.4l-10.1,52.2h-34.8l-5.8,29.2h34.8l-16.1,83.4c-0.7,3.5-1.2,6.7-1.5,9.4
		c-0.3,2.9-0.5,5.4-0.5,7.5c0,13.4,4.6,23.5,13.7,30.3c8.6,6.4,22.3,9.6,40.6,9.6c10.7,0,20.2-0.8,28.2-2.5
		c7.8-1.6,13.9-3.1,18.1-4.4l3.5-1.1v-29l-6.5,2c-3.3,1-8.1,2.2-14.4,3.6c-6,1.3-13.3,2-21.4,2c-10.1,0-17.4-1.4-21.6-4
		c-3.6-2.3-5.2-5.8-5.2-11.1c0-1.4,0.1-2.9,0.4-4.4c0.3-1.8,0.7-4,1.1-6.5l16.7-84.6h73.7l5.8-29.2h-73.7L1847.2,1148z"/>
	<path fill="#FFFFFF" d="M2045,1212.4c-4.2-2.2-8.8-4.3-13.6-6c-7.4-2.6-15.7-4-24.7-4c-13.1,0-25.4,2.9-36.7,8.5
		c-11.2,5.6-21,13.8-29.2,24.3c-8.1,10.3-14.6,23-19.2,37.6c-4.6,14.5-7,30.8-7,48.6c0,17.7,4.5,31.3,13.3,40.4
		c8.9,9.2,20.9,13.9,35.7,13.9c6,0,12-0.8,18-2.4c5.8-1.6,11.5-3.7,16.9-6.2c5.3-2.6,10.5-5.5,15.3-8.9c1.2-0.8,2.4-1.7,3.5-2.5
		l-1.8,16.9h29.8l32.3-166.8h-30.6L2045,1212.4z M2005.9,1232.2c6.6,0,12.6,1,17.8,3c4.3,1.7,8.3,3.6,12,5.7l-14.3,74.6
		c-3.8,4.3-7.9,8.2-12.2,11.7c-4.6,3.8-9.3,7.1-13.9,9.8c-4.5,2.7-8.9,4.7-13,6.1c-4,1.3-7.8,2-11.3,2c-7.1,0-12.3-2.1-15.8-6.4
		c-3.7-4.5-5.6-11.5-5.6-21c0-11.9,1.4-23.2,4.2-33.6c2.7-10.3,6.7-19.5,11.9-27.3c5-7.7,11.1-13.8,18.1-18.2
		C1990.5,1234.4,1997.9,1232.2,2005.9,1232.2z"/>
	<polygon fill="#FFFFFF" points="2142.7,1343.2 2184.6,1126.2 2095.4,1126.2 2089.6,1155.4 2143.7,1155.4 2101.8,1372.4 
		2194.9,1372.4 2200.3,1343.2 	"/>
</g>
<circle fill="#FF7D7D" cx="3212.1" cy="1280.8" r="373.7"/>
<path fill="#FFFFFF" d="M3442.2,1120.8c-4.8-1.1-10.2-2-16-2.8c-5.9-0.8-11.8-1.2-17.8-1.2c-18.9,0-34.6,4.5-46.8,13.3
	c-12.3,8.9-20.7,24.4-25,45.8l-4.7,24.7h-108.5l16.2-83.8h-35.5l-16.2,83.8h-83.5l16.2-83.8h-35.5l-16.2,83.8h-51.5l-5.8,29.2h51.7
	l-15.6,80.8h-43.2l-5.8,29.2h43.4l-19.2,99.3h35.5l19.2-99.3h83.5l-19.2,99.3h35.5l19.2-99.3h50.9l5.4-29.2h-50.6l15.6-80.8h108.4
	l-28.6,146.9c-1.4,6.6-3.2,12-5.5,16.3c-2.1,4.1-4.7,7.3-7.5,9.6c-2.9,2.3-6.3,4.1-10.2,5.1c-4.1,1.2-8.7,1.7-13.5,1.7
	c-4.9,0-9.8-0.2-14.6-0.6c-4.6-0.4-9-1.1-13-2.1l-4.9-1.2l-6.8,28.8l5,1.1c5.1,1.1,10.6,2,16.3,2.6c5.8,0.7,11.8,1,17.7,1
	c18.9,0,34.6-4.5,46.8-13.3c12.3-8.9,20.7-24.2,25-45.5l29.3-150.5h40.5l5.4-29.2h-40.4l4.3-21.3c1.2-6.5,2.9-12,5.1-16.2l0,0
	c2.1-4.1,4.7-7.4,7.7-9.8c2.9-2.4,6.3-4.1,10.1-5.1c4.1-1.1,8.7-1.6,13.8-1.6c4.9,0,9.8,0.2,14.6,0.6c4.6,0.4,9,1.1,13,2.1l5,1.2
	l6.3-28.8L3442.2,1120.8z M3182.4,1229.9l-15.6,80.8h-83.5l15.6-80.8H3182.4z"/>
</svg>
